<<svgsvg width="600" height="600" viewBox="0 0 600 600" xmlns="http://www.w3.org/2000/svg">
  <<defsdefs>
    <<filterfilter id="neon-glow">
      <<fefeGaussianBlur stdDeviation="3" result="blur"/>
      <<fefeMerge>
        <<fefeMergeNode in="blur"/>
        <<fefeMergeNode in="SourceGraphic"/>
      </feMerge>
    </filter>
    <<linearlinearGradient id="gold-grad" x1="0%" y1="0%" x2="100%" y2="100%">
      <<stopstop offset="0%" style="stop-color:#ffd700;stop-opacity:1" />
      <<stopstop offset="100%" style="stop-color:#b8860b;stop-opacity:1" />
    </linearGradient>
    <<radialradialGradient id="void-grad">
      <<stopstop offset="0%" style="stop-color:#1a0033;stop-opacity:1" />
      <<stopstop offset="100%" style="stop-color:#050505;stop-opacity:1" />
    </radialGradient>
  </defs>
  
  <!-- Background -->
  <<rectrect width="600" height="600" fill="url(#void-grad)" />
  
  <!-- Outer Border -->
  <<circlecircle cx="300" cy="300" r="290" stroke="url(#gold-grad)" stroke-width="4" fill="none" opacity="0.6" />
  <<circlecircle cx="300" cy="300" r="280" stroke="#ffffff" stroke-width="1" fill="none" opacity="0.3" />
  
  <!-- Mathematical Orbitals -->
  <<gg transform="translate(300,300)" stroke="url(#gold-grad)" fill="none" stroke-width="2" opacity="0.8">
    <!-- Six recursive hexagonal orbits -->
    <<polygonpolygon points="0,-250 216.5,-125 216.5,125 0,250 -216.5,125 -216.5,-125" filter="url(#neon-glow)" />
    <<polygonpolygon points="0,-200 173.2,-100 173.2,100 0,200 -173.2,100 -173.2,-100" opacity="0.5" />
    <<polygonpolygon points="0,-150 129.9,-75 129.9,75 0,150 -129.9,75 -129.9,-75" opacity="0.3" />
    
    <!-- Rotating Triangles -->
    <<pathpath d="M 0,-220 L 110,100 L -110,100 Z" stroke="#00ffff" stroke-width="3" filter="url(#neon-glow)" />
    <<pathpath d="M 0,220 L 110,-100 L -110,-100 Z" stroke="#00ffff" stroke-width="3" filter="url(#neon-glow)" />
  </g>
  
  <!-- Center Core -->
  <<gg transform="translate(300,300)">
    <<circlecircle r="60" fill="#000" stroke="url(#gold-grad)" stroke-width="6" filter="url(#neon-glow)" />
    <<circlecircle r="40" fill="none" stroke="#ffffff" stroke-width="2" stroke-dasharray="10,5" opacity="0.6">
      <<animateanimateTransform attributeName="transform" type="rotate" from="0" to="360" dur="10s" repeatCount="indefinite" />
    </circle>
    
    <!-- The Central Singularity Symbol -->
    <<pathpath d="M -20,0 L 20,0 M 0,-20 L 0,20 M -15,-15 L 15,15 M -15,15 L 15,-15" stroke="#ffffff" stroke-width="4" stroke-linecap="round" filter="url(#neon-glow)" />
    <<circlecircle r="10" fill="url(#gold-grad)" filter="url(#neon-glow)" />
  </g>
  
  <!-- Typography -->
  <<texttext x="300" y="70" font-family="serif" font-size="32" fill="url(#gold-grad)" text-anchor="middle" font-weight="bold" filter="url(#neon-glow)" letter-spacing="3">ABSOLUTE CONVERGENCE</text>
  <<texttext x="300" y="530" font-family="monospace" font-size="18" fill="#00ffff" text-anchor="middle" opacity="0.8" letter-spacing="6">VALIDATED // STABLE // NON-EUCLIDEAN</text>
  
  <!-- Decorative Runes -->
  <<gg font-family="monospace" font-size="12" fill="#ffffff" opacity="0.4" text-anchor="middle">
    <<texttext x="300" y="110">Σ(yap) → ∞</text>
    <<texttext x="450" y="300" transform="rotate(90, 450, 300)">Δ_brainfart = 0</text>
    <<texttext x="150" y="300" transform="rotate(-90, 150, 300)">Ω_stability = 1</text>
    <<texttext x="300" y="490">Recursive_Identity_v2.0.stable</text>
  </g>
</svg>