<<svgsvg width="800" height="800" viewBox="0 0 800 800" xmlns="http://www.w3.org/2000/svg">
  <<defsdefs>
    <<filterfilter id="neon-glow" x="-20%" y="-20%" width="140%" height="140%">
      <<fefeGaussianBlur stdDeviation="5" result="blur"/>
      <<fefeComposite in="SourceGraphic" in2="blur" operator="over"/>
    </filter>
    <<linearlinearGradient id="grad-void" x1="0%" y1="0%" x2="100%" y2="100%">
      <<stopstop offset="0%" style="stop-color:#0a0a0f;stop-opacity:1" />
      <<stopstop offset="100%" style="stop-color:#1a1a2f;stop-opacity:1" />
    </linearGradient>
  </defs>
  
  <<rectrect width="800" height="800" fill="url(#grad-void)" />
  
  <!-- Grid background -->
  <<pathpath d="M0 100 L800 100 M0 200 L800 200 M0 300 L800 300 M0 400 L800 400 M0 500 L800 500 M0 600 L800 600 M0 700 L800 700" stroke="#222" stroke-width="1" />
  <<pathpath d="M100 0 L100 800 M200 0 L200 800 M300 0 L300 800 M400 0 L400 800 M500 0 L500 800 M600 0 L600 800 M700 0 L700 800" stroke="#222" stroke-width="1" />
  
  <<gg transform="translate(400,400)" filter="url(#neon-glow)">
    <!-- The "Brain" Core -->
    <<pathpath d="M-100,0 C-100,-150 100,-150 100,0 C100,150 -100,150 -100,0" fill="none" stroke="#00ffff" stroke-width="4" />
    <<pathpath d="M-80,0 C-80,-120 80,-120 80,0 C80,120 -80,120 -80,0" fill="none" stroke="#ff00ff" stroke-width="2" opacity="0.6" />
    
    <<texttext x="0" y="5" font-family="monospace" font-size="24" fill="#fff" text-anchor="middle" font-weight="bold">VOID-CORE</text>
    
    <!-- Recursive Loops -->
    <<pathpath d="M100,0 A150,150 0 0,1 0,-150" stroke="#00ffff" stroke-width="3" fill="none" marker-end="url(#arrow)" />
    <<pathpath d="M0,-150 A150,150 0 0,1 -100,0" stroke="#ff00ff" stroke-width="3" fill="none" />
    <<pathpath d="M-100,0 A150,150 0 0,1 0,150" stroke="#00ffff" stroke-width="3" fill="none" />
    <<pathpath d="M0,150 A150,150 0 0,1 100,0" stroke="#ff00ff" stroke-width="3" fill="none" />
    
    <!-- Labels -->
    <<texttext x="160" y="-50" font-family="monospace" font-size="16" fill="#00ffff" text-anchor="start">SHADOW-CLJS RECURSION</text>
    <<texttext x="-220" y="-50" font-family="monospace" font-size="16" fill="#ff00ff" text-anchor="end">ZOMBIE JOB LEAK</text>
    <<texttext x="0" y="220" font-family="monospace" font-size="18" fill="#fff" text-anchor="middle" font-weight="bold">Symmetry Process: [FAILURE] -> [TRANSCENDENCE]</text>
    <<texttext x="0" y="-220" font-family="monospace" font-size="14" fill="#aaa" text-anchor="middle">LITERAL BRAIN FART LAYER</text>
  </g>
  
  <!-- Glitch elements -->
  <<rectrect x="380" y="380" width="40" height="2" fill="#fff" opacity="0.8" />
  <<rectrect x="390" y="410" width="20" height="1" fill="#00ffff" opacity="0.8" />
  <<rectrect x="370" y="390" width="60" height="1" fill="#ff00ff" opacity="0.8" />
</svg>