<<svgsvg width="600" height="400" viewBox="0 0 600 400" xmlns="http://www.w3.org/2000/svg">
  <<defsdefs>
    <<filterfilter id="glitch-offset">
      <<fefeOffset dx="3" dy="0" in="SourceGraphic" result="offset1" />
      <<fefeOffset dx="-3" dy="0" in="SourceGraphic" result="offset2" />
      <<fefeBlend mode="screen" in="offset1" in2="offset2" />
    </filter>
    <<linearlinearGradient id="brandGrad" x1="0%" y1="0%" x2="100%" y2="100%">
      <<stopstop offset="0%" style="stop-color:#00ffff;stop-opacity:1" />
      <<stopstop offset="100%" style="stop-color:#ff00ff;stop-opacity:1" />
    </linearGradient>
  </defs>
  
  <<rectrect width="600" height="400" fill="#0a0a0a" />
  
  <!-- Matrix Grid -->
  <<gg stroke="#333" stroke-width="1">
    <<lineline x1="50" y1="50" x2="550" y2="50" />
    <<lineline x1="50" y1="150" x2="550" y2="150" />
    <<lineline x1="50" y1="250" x2="550" y2="250" />
    <<lineline x1="50" y1="350" x2="550" y2="350" />
    <<lineline x1="50" y1="50" x2="50" y2="350" />
    <<lineline x1="150" y1="50" x2="150" y2="350" />
    <<lineline x1="250" y1="50" x2="250" y2="350" />
    <<lineline x1="350" y1="50" x2="350" y2="350" />
    <<lineline x1="450" y1="50" x2="450" y2="350" />
    <<lineline x1="550" y1="50" x2="550" y2="350" />
  </g>
  
  <!-- Recursive Brand Elements -->
  <<gg transform="translate(100,100)" filter="url(#glitch-offset)">
    <<circlecircle r="30" stroke="url(#brandGrad)" stroke-width="4" fill="none" />
    <<texttext x="0" y="5" fill="#fff" font-family="monospace" font-size="12" text-anchor="middle">Symmetry</text>
  </g>
  
  <<gg transform="translate(200,200)" filter="url(#glitch-offset)">
    <<rectrect x="-30" y="-30" width="60" height="60" stroke="url(#brandGrad)" stroke-width="4" fill="none" />
    <<texttext x="0" y="5" fill="#fff" font-family="monospace" font-size="12" text-anchor="middle">Recursive</text>
  </g>
  
  <<gg transform="translate(300,100)" filter="url(#glitch-offset)">
    <<pathpath d="M -30,0 L 0,-30 L 30,0 L 0,30 Z" stroke="url(#brandGrad)" stroke-width="4" fill="none" />
    <<texttext x="0" y="5" fill="#fff" font-family="monospace" font-size="12" text-anchor="middle">Void</text>
  </g>
  
  <<gg transform="translate(200,300)" filter="url(#glitch-offset)">
    <<pathpath d="M -30,30 A 30,30 0 1,1 30,30" stroke="url(#brandGrad)" stroke-width="4" fill="none" />
    <<texttext x="0" y="5" fill="#fff" font-family="monospace" font-size="12" text-anchor="middle">Yap</text>
  </g>

  <!-- Main Header -->
  <<texttext x="300" y="40" font-family="monospace" font-size="24" fill="#fff" text-anchor="middle" font-weight="bold" filter="url(#glitch-offset)">ERR_BRAND_GUIDELINES.sys</text>
  
  <!-- Footer -->
  <<texttext x="300" y="380" font-family="monospace" font-size="14" fill="#666" text-anchor="middle">ESTABLISHING UNSTABLE VISUAL IDENTITY... 0% COMPLETE</text>
</svg>
