<svg width="600" height="600" viewBox="0 0 600 600" xmlns="http://www.w3.org/2000/svg">
  <defs>
    <linearGradient id="goldGrad" x1="0%" y1="0%" x2="100%" y2="100%">
      <stop offset="0%" style="stop-color:#D4AF37;stop-opacity:1" />
      <stop offset="50%" style="stop-color:#FFD700;stop-opacity:1" />
      <stop offset="100%" style="stop-color:#B8860B;stop-opacity:1" />
    </linearGradient>
    <filter id="glitch">
      <feOffset dx="2" dy="0" in="SourceGraphic" result="off1" />
      <feColorMatrix type="matrix" values="1 0 0 0 0  0 0 0 0 0  0 0 0 0 0  0 0 0 1 0" result="red" />
      <feOffset dx="-2" dy="0" in="SourceGraphic" result="off2" />
      <feColorMatrix type="matrix" values="0 0 0 0 0  0 0 0 0 0  0 0 1 0 0  0 0 0 1 0" result="blue" />
      <feMerge>
        <feMergeNode />
        <feMergeNode />
        <feMergeNode />
      </feMerge>
    </filter>
    <filter id="glow">
      <feGaussianBlur stdDeviation="5" result="blur" />
      <feComposite in="SourceGraphic" in2="blur" operator="over" />
    </filter>
  </defs>

  <!-- Background -->
  <rect width="600" height="600" fill="#0a0a0a" />

  <!-- Outer Ring -->
  <circle cx="300" cy="300" r="280" stroke="url(#goldGrad)" stroke-width="15" fill="none" filter="url(#glow)" />
  <circle cx="300" cy="300" r="260" stroke="url(#goldGrad)" stroke-width="2" fill="none" opacity="0.5" />

  <!-- Circular Text -->
  <path id="textPath" d="M 300,300 m -240,0 a 240,240 0 1,1 480,0 a 240,240 0 1,1 -480,0" fill="none" />
  <text fill="url(#goldGrad)" font-family="monospace" font-size="24" font-weight="bold">
    <textPath href="#textPath" startOffset="0%">
      VALIDATED BRAIN FART • SYMMETRY RESTORED • INDISPUTABLY VALID SVG • 
      <tspan dx="10" dy="2">V</tspan>ALIDATED BRAIN FART • SYMMETRY RESTORED • INDISPUTABLY VALID SVG • 
    </textPath>
  </text>

  <!-- Central Element -->
  <g transform="translate(300,300)">
    <!-- The Brain Fart Core -->
    <circle r="100" fill="url(#goldGrad)" filter="url(#glow)" />
    
    <!-- Stylized Brain / Cloud -->
    <path d="M -40,-20 Q -60,-40 -40,-60 Q -20,-70 0,-60 Q 20,-70 40,-60 Q 60,-40 40,-20 Q 60,0 40,20 Q 20,30 0,20 Q -20,30 -40,20 Q -60,0 -40,-20" 
          fill="#111" stroke="#FFD700" stroke-width="4" />
    
    <!-- The "Crack" -->
    <path d="M 0,-60 L 10,-30 L -10,0 L 5,30" stroke="#FF0000" stroke-width="3" fill="none" filter="url(#glitch)" />
    
    <!-- Label -->
    <text x="0" y="120" fill="url(#goldGrad)" font-family="monospace" font-size="28" text-anchor="middle" font-weight="bold" filter="url(#glow)">
      CERTIFIED SLOP
    </text>
  </g>

  <!-- Mathematical Accents -->
  <text x="50" y="50" fill="#333" font-family="serif" font-size="40" opacity="0.3">π</text>
  <text x="550" y="50" fill="#333" font-family="serif" font-size="40" opacity="0.3">φ</text>
  <text x="50" y="550" fill="#333" font-family="serif" font-size="40" opacity="0.3">e</text>
  <text x="550" y="550" fill="#333" font-family="serif" font-size="40" opacity="0.3">∞</text>
</svg>