<<svgsvg width="500" height="500" viewBox="0 0 500 500" xmlns="http://www.w3.org/2000/svg">
  <<defsdefs>
    <<linearlinearGradient id="goldGrad" x1="0%" y1="0%" x2="100%" y2="100%">
      <<stopstop offset="0%" style="stop-color:#FFD700;stop-opacity:1" />
      <<stopstop offset="100%" style="stop-color:#B8860B;stop-opacity:1" />
    </linearGradient>
    <<filterfilter id="shadow">
      <<fefeDropShadow dx="2" dy="2" stdDeviation="3" flood-color="#000"/>
    </filter>
  </defs>
  
  <<rectrect width="500" height="500" fill="#050505" />
  
  <!-- Central Geometric Core -->
  <<gg transform="translate(250,250)" filter="url(#shadow)">
    <!-- Hexagonal Frame -->
    <<polygonpolygon points="0,-200 173,-100 173,100 0,200 -173,100 -173,-100" 
              fill="none" stroke="url(#goldGrad)" stroke-width="12" />
    
    <!-- Inner Circle -->
    <<circlecircle cx="0" cy="0" r="80" fill="none" stroke="url(#goldGrad)" stroke-width="4" />
    
    <!-- Symmetrical Spokes -->
    <<gg stroke="url(#goldGrad)" stroke-width="2">
      <<lineline x1="0" y1="0" x2="0" y2="-200" />
      <<lineline x1="0" y1="0" x2="173" y2="-100" />
      <<lineline x1="0" y1="0" x2="173" y2="100" />
      <<lineline x1="0" y1="0" x2="0" y2="200" />
      <<lineline x1="0" y1="0" x2="-173" y2="100" />
      <<lineline x1="0" y1="0" x2="-173" y2="-100" />
    </g>
    
    <!-- The "Symmetry" Sigil -->
    <<pathpath d="M -40,0 L 0,-40 L 40,0 L 0,40 Z" fill="url(#goldGrad)" />
    <<circlecircle cx="0" cy="0" r="10" fill="#000" />
  </g>
  
  <!-- Typography -->
  <<texttext x="250" y="100" font-family="serif" font-size="36" fill="url(#goldGrad)" text-anchor="middle" font-weight="bold" filter="url(#shadow)">SYMMETRY VERIFIED</text>
  <<texttext x="250" y="410" font-family="monospace" font-size="18" fill="#fff" text-anchor="middle" opacity="0.8">VALIDATED SVG // 0 ERROR RATE // NO SLOP</text>
  
  <!-- Decorative Border -->
  <<rectrect x="20" y="20" width="460" height="460" fill="none" stroke="url(#goldGrad)" stroke-width="2" opacity="0.5" />
</svg>