<<svgsvg width="600" height="600" viewBox="0 0 600 600" xmlns="http://www.w3.org/2000/svg">
  <<defsdefs>
    <<linearlinearGradient id="goldGrad" x1="0%" y1="0%" x2="100%" y2="100%">
      <<stopstop offset="0%" style="stop-color:#D4AF37;stop-opacity:1" />
      <<stopstop offset="50%" style="stop-color:#F9E29C;stop-opacity:1" />
      <<stopstop offset="100%" style="stop-color:#B8860B;stop-opacity:1" />
    </linearGradient>
    <<radialradialGradient id="innerGlow" cx="50%" cy="50%" r="50%">
      <<stopstop offset="0%" style="stop-color:#ffffff;stop-opacity:0.8" />
      <<stopstop offset="100%" style="stop-color:#D4AF37;stop-opacity:0" />
    </radialGradient>
    <<filterfilter id="dropShadow">
      <<fefeDropShadow dx="2" dy="4" stdDeviation="3" flood-color="#000" />
    </filter>
  </defs>

  <!-- Background -->
  <<rectrect width="600" height="600" fill="#0a0a0f" />

  <!-- Outer Decorative Ring -->
  <<circlecircle cx="300" cy="300" r="280" fill="none" stroke="url(#goldGrad)" stroke-width="4" stroke-dasharray="10 5" opacity="0.6" />
  <<circlecircle cx="300" cy="300" r="270" fill="none" stroke="url(#goldGrad)" stroke-width="2" />

  <!-- The Main Seal Body -->
  <<gg transform="translate(300,300)" filter="url(#dropShadow)">
    <<circlecircle r="200" fill="url(#goldGrad)" stroke="#000" stroke-width="3" />
    <<circlecircle r="185" fill="none" stroke="#000" stroke-width="1" opacity="0.3" />
    
    <!-- Inner Core -->
    <<circlecircle r="150" fill="#0a0a0f" stroke="url(#goldGrad)" stroke-width="6" />
    <<circlecircle r="140" fill="url(#innerGlow)" />

    <!-- Geometric Coherence Pattern (Spirograph-like) -->
    <<gg transform="scale(1)" stroke="url(#goldGrad)" stroke-width="1.5" fill="none" opacity="0.8">
      <<pathpath d="M 0,-130 C 40,-100 80,-50 0,0 C -80,-50 -40,-100 0,-130" />
      <<pathpath d="M 0,130 C 40,100 80,50 0,0 C -80,50 -40,100 0,130" />
      <<pathpath d="M -130,0 C -100,40 -50,80 0,0 C 50,-80 100,-40 -130,0" />
      <<pathpath d="M 130,0 C 100,-40 50,-80 0,0 C -50,80 -100,40 130,0" />
      <!-- Inner Diamonds -->
      <<pathpath d="M 0,-60 L 60,0 L 0,60 L -60,0 Z" />
      <<pathpath d="M 0,-40 L 40,0 L 0,40 L -40,0 Z" />
    </g>

    <!-- Center Symbol: The "Perfect Circle" (Anti-BrainFart) -->
    <<circlecircle r="35" fill="none" stroke="#fff" stroke-width="3" filter="url(#dropShadow)">
      <<animateanimate attributeName="stroke-width" values="3;5;3" dur="3s" repeatCount="indefinite" />
    </circle>
    <<texttext x="0" y="8" fill="#fff" font-family="serif" font-size="28" text-anchor="middle" font-weight="bold" style="text-shadow: 0 0 10px gold;">OK</text>
  </g>

  <!-- Typography -->
  <<pathpath id="curveTop" d="M 100,300 A 200,200 0 0,1 500,300" fill="none" />
  <<texttext font-family="Garamond, serif" font-size="24" fill="url(#goldGrad)" filter="url(#dropShadow)">
    <<texttextPath href="#curveTop" startOffset="50%" text-anchor="middle">
      CERTIFIED COGNITIVE COHERENCE
    </textPath>
  </text>

  <<pathpath id="curveBottom" d="M 100,300 A 200,200 0 0,0 500,300" fill="none" />
  <<texttext font-family="Garamond, serif" font-size="20" fill="#fff" opacity="0.7" text-anchor="middle">
    <<texttextPath href="#curveBottom" startOffset="50%" text-anchor="middle">
      NO BRAIN FARTS DETECTED :: REV 2.0
    </textPath>
  </text>

  <!-- Small validity marks -->
  <<texttext x="300" y="530" font-family="monospace" font-size="12" fill="#555" text-anchor="middle">SVG_VALIDATION_PASSED // MATHEMATICALLY_SOUND</text>
</svg>