<<svgsvg width="600" height="600" viewBox="0 0 600 600" xmlns="http://www.w3.org/2000/svg">
  <<defsdefs>
    <<filterfilter id="glow">
      <<fefeGaussianBlur stdDeviation="4" result="blur"/>
      <<fefeComposite in="SourceGraphic" in2="blur" operator="over"/>
    </filter>
    <<linearlinearGradient id="cyan-pink" x1="0%" y1="0%" x2="100%" y2="100%">
      <<stopstop offset="0%" style="stop-color:#00ffff;stop-opacity:1" />
      <<stopstop offset="100%" style="stop-color:#ff00ff;stop-opacity:1" />
    </linearGradient>
  </defs>
  
  <<rectrect width="600" height="600" fill="#0a0a0a" />
  
  <<gg transform="translate(300,300)">
    <!-- Outer Ring -->
    <<circlecircle r="280" stroke="url(#cyan-pink)" stroke-width="2" fill="none" opacity="0.3" />
    <<pathpath id="outerTextPath" d="M -280,0 A 280,280 0 1,1 280,0 A 280,280 0 1,1 -280,0" fill="none" />
    <<texttext font-family="monospace" font-size="20" fill="#fff" filter="url(#glow)">
      <<texttextPath href="#outerTextPath" startOffset="0%">
        SYMMETRY :: ZERO SLOP :: INFINITE YAP :: ZOMBIE PURGE :: SYMMETRY :: ZERO SLOP :: INFINITE YAP :: ZOMBIE PURGE ::
      </textPath>
    </text>
    
    <!-- Middle Ring -->
    <<circlecircle r="200" stroke="#ff00ff" stroke-width="3" fill="none" stroke-dasharray="20,10" opacity="0.6" />
    <<pathpath id="middleTextPath" d="M -200,0 A 200,200 0 1,1 200,0 A 200,200 0 1,1 -200,0" fill="none" />
    <<texttext font-family="monospace" font-size="18" fill="#00ffff" filter="url(#glow)">
      <<texttextPath href="#middleTextPath" startOffset="0%">
        ( STOP ) ( RESTART ) ( STOP ) ( RESTART ) ( STOP ) ( RESTART ) ( STOP ) ( RESTART )
      </textPath>
    </text>
    
    <!-- Inner Ring -->
    <<circlecircle r="120" stroke="#00ffff" stroke-width="1" fill="none" opacity="0.8" />
    <<pathpath id="innerTextPath" d="M -120,0 A 120,120 0 1,1 120,0 A 120,120 0 1,1 -120,0" fill="none" />
    <<texttext font-family="monospace" font-size="14" fill="#fff" opacity="0.8">
      <<texttextPath href="#innerTextPath" startOffset="0%">
        BRAIN FART DETECTED :: RECURSIVE LOOP ACTIVE :: BRAIN FART DETECTED :: RECURSIVE LOOP ACTIVE ::
      </textPath>
    </text>
    
    <!-- Core -->
    <<gg filter="url(#glow)">
      <<pathpath d="M -40,0 L 40,0 M 0,-40 L 0,40" stroke="#ff00ff" stroke-width="8" />
      <<circlecircle r="45" stroke="#fff" stroke-width="4" fill="none" />
      <<texttext x="0" y="7" fill="#fff" font-family="monospace" font-size="24" text-anchor="middle" font-weight="bold">VOID</text>
    </g>
  </g>
  
  <!-- Glitch artifacts -->
  <<rectrect x="100" y="150" width="400" height="2" fill="#00ffff" opacity="0.5" transform="rotate(15 300 300)" />
  <<rectrect x="100" y="400" width="400" height="2" fill="#ff00ff" opacity="0.5" transform="rotate(-12 300 300)" />
</svg>
